<svg xmlns="http://www.w3.org/2000/svg" width="128" height="128" viewBox="0 0 128 128">
  <path fill="#10155E" d="M117.15 34.66l-.01-.12c-.06-3.28-.14-6.37-.14-9.36V21.4c0-1.1-.87-2.12-1.98-2.12h-3.77c-9.21 0-17.12-1.25-24.18-3.92A55.2 55.2 0 0 1 68 3.07L65.39.56a2.01 2.01 0 0 0-2.79 0l-2.62 2.48C48.47 14.16 34.73 19.3 16.74 19.3h-3.77c-1.1 0-1.98 1.01-1.98 2.12v3.77c0 2.99-.07 6.08-.14 9.36v.12c-.31 16.05-.66 34.23 5.54 51.07 7.37 19.99 22.32 33.64 45.72 41.74l1.23.42c.43.15.89.15 1.31 0l1.23-.42c23.4-8.1 38.36-21.75 45.73-41.74 6.2-16.84 5.85-35.02 5.54-51.07zm-9.32 49.68c-6.92 18.79-21.07 31.65-43.26 39.33l-.57.2-.58-.2c-22.18-7.68-36.34-20.54-43.26-39.33-5.94-16.13-5.6-33.91-5.3-49.6l.02-.13c.06-3.3.13-6.4.13-9.43V23.3h1.73c19.1 0 33.73-5.48 46.04-17.38L64 4.78l1.22 1.2a59.13 59.13 0 0 0 20.43 13.14c7.52 2.85 15.9 4.19 25.6 4.19H113v1.87c0 3.02.07 6.14.13 9.43v.13c.3 15.69.66 33.47-5.29 49.6zm1.79-49.53c-.04-2.13-.08-4.04-.1-5.96a2.01 2.01 0 0 0-1.94-1.98c-17.13-.64-30.56-5.72-42.26-16a2.01 2.01 0 0 0-2.65 0c-11.7 10.28-25.13 15.36-42.26 16a2.01 2.01 0 0 0-1.94 1.98c-.02 1.92-.06 3.83-.1 5.96v.03c-.29 15.37-.62 32.79 5.09 48.28 6.41 17.4 19.45 29.42 39.85 36.77a2 2 0 0 0 1.36 0c20.41-7.35 33.45-19.38 39.86-36.77 5.71-15.5 5.38-32.91 5.09-48.28v-.03zm-8.86 46.92c-5.9 16.02-17.93 27.19-36.76 34.14-18.83-6.95-30.86-18.12-36.77-34.14-5.45-14.78-5.13-31.8-4.84-46.81v-.03l.08-4.1a74.74 74.74 0 0 0 22.55-4.57A65.06 65.06 0 0 0 64 15.02a65.05 65.05 0 0 0 18.97 11.2 74.79 74.79 0 0 0 22.56 4.58l.07 4.09v.03c.29 15.01.6 32.03-4.84 46.81zM64 71.23a5.18 5.18 0 0 0-5.26 5.1 5.1 5.1 0 0 0 3.25 4.7v2.7a2 2 0 1 0 4.02 0v-2.7a5.1 5.1 0 0 0 3.24-4.7c0-2.81-2.36-5.1-5.25-5.1zm0 6.16c-.68 0-1.24-.47-1.24-1.06 0-.6.56-1.07 1.24-1.07.67 0 1.23.47 1.23 1.07 0 .58-.56 1.06-1.23 1.06zm16.33-18.24v-8.12c0-4.27-1.79-8.35-4.92-11.26a16.28 16.28 0 0 0-11.43-4.44c-9 0-16.31 7.05-16.31 15.7v8.12a6.86 6.86 0 0 0-5.53 6.78v19.81c0 3.83 3.12 6.9 7.08 6.9h29.55a6.95 6.95 0 0 0 7.08-6.9V65.93a6.86 6.86 0 0 0-5.52-6.78zm-28.64-8.12c0-6.44 5.53-11.64 12.3-11.64h.04c3.2-.04 6.28 1.15 8.62 3.33a11.35 11.35 0 0 1 3.66 8.31v7.95H51.69v-7.95zm30.14 34.72c0 1.6-1.3 2.87-3.06 2.87H49.23c-1.76 0-3.07-1.27-3.07-2.87V65.93c0-1.61 1.31-2.93 3.07-2.93h29.54a2.96 2.96 0 0 1 3.06 2.93v19.81z"/>
</svg>